<?xml version="1.0" encoding="utf-8"?>
<!-- (c) ammap.com | SVG map of India - High -->
<svg xmlns="http://www.w3.org/2000/svg" xmlns:amcharts="http://amcharts.com/ammap" xmlns:xlink="http://www.w3.org/1999/xlink" version="1.1">
	<defs>
		<style type="text/css">
			.land
			{
				fill: #CCCCCC;
				fill-opacity: 1;
				stroke:white;
				stroke-opacity: 1;
				stroke-width:0.5;
			}
		</style>

		<amcharts:ammap projection="mercator" leftLongitude="68.183544" topLatitude="37.053723" rightLongitude="97.419080" bottomLatitude="6.751085"></amcharts:ammap>

		<!-- All areas are listed in the line below. You can use this list in your script. -->
		<!--{id:"IN-AN"},{id:"IN-AP"},{id:"IN-AR"},{id:"IN-AS"},{id:"IN-BR"},{id:"IN-CH"},{id:"IN-CT"},{id:"IN-DD"},{id:"IN-DL"},{id:"IN-DN"},{id:"IN-GA"},{id:"IN-GJ"},{id:"IN-HP"},{id:"IN-HR"},{id:"IN-JH"},{id:"IN-JK"},{id:"IN-KA"},{id:"IN-KL"},{id:"IN-LD"},{id:"IN-MH"},{id:"IN-ML"},{id:"IN-MN"},{id:"IN-MP"},{id:"IN-MZ"},{id:"IN-NL"},{id:"IN-OR"},{id:"IN-PB"},{id:"IN-PY"},{id:"IN-RJ"},{id:"IN-SK"},{id:"IN-TG"},{id:"IN-TN"},{id:"IN-TR"},{id:"IN-UP"},{id:"IN-UT"},{id:"IN-WB"}-->

	</defs>
	<g>
		<path id="IN-AP" title="Andhra Pradesh" class="land" d="M295.496,580.058l-0.002,0.007l0,0L295.496,580.058zM296.148,580.019l-0.389,2.472l-0.753,-1.071l-0.016,-0.797L296.148,580.019zM295.496,580.058l-0.122,-0.623l-0.272,0.44l-1.262,0.097l-0.058,-0.726l-0.901,0.577l1.737,0.761l0,0l-0.023,1.031l0.454,0.139l0.663,1.489l-7.647,3.743l-4.692,1.843l-3.756,-1.061l-3.105,0.367l-2.669,1.325l-2.599,5.691l0.099,0.962l-2.908,3.077l-0.273,0.462l0.384,0.864l-0.948,0.829l-3.03,0.408l-0.866,-1.46l0.261,-0.773l0.373,0.006l-0.117,-0.576l-2.482,-0.866l-3.128,0.602l-2.228,1.063l-1.913,1.26l-1.459,1.628l-1.448,4.463l-2.123,3.362l-1.075,5.006l1.396,7.45l1.762,3.089l-1.448,10.008l2.407,6.473l-0.174,3.849l1.651,4.409l-3.018,-5.475l-0.564,-0.255l-0.116,1.896l-0.617,-0.618l0.355,-0.612l-0.401,-0.077l-1.169,1.837l2.315,2.109l1.569,0.036l1.581,1.4l0,0l0.001,1.134l-0.756,-0.422l-0.956,-1.876l-1.638,-0.043l-1.73,-1.257l-1.577,0.171l-0.083,0.418l0.891,0.177l0.069,0.371l-0.631,-0.07l-0.22,0.605l-0.702,0.175l0.029,0.714l-0.644,0.29l0.441,0.646l-0.587,0.815l-1.556,0.695l-1.065,-0.019l-0.429,0.476l-0.538,-0.443l-0.687,0.653l1.332,1.042l-0.848,0.61l-0.451,-0.575l-0.714,0.309l0.153,-0.566l-0.476,0.095l-0.1,-1.121l-1.848,0.781l-0.66,-0.465l-0.271,-0.939l-2.238,-0.268l-1.136,0.439l1.056,0.464l-0.297,1.479l0.529,-0.378l0.197,0.279l-0.5,0.176l0.045,0.45l-1.591,0.521l0.142,0.711l-0.976,0.701l-0.849,-0.946l-1.027,0.121l-0.001,0.676l-0.615,0.412l-0.758,1.651l-1.751,-0.146l-1.873,-1.331l-1.365,0.187l-0.438,0.697l0.653,0.352l-0.895,-0.023l-0.123,-1.419l-2.722,0.871l-0.912,-0.229l-0.182,1.105l-0.893,-0.289l-0.784,0.833l0.691,1.277l-0.439,-0.004l-0.916,3.166l-0.762,0.573l0.044,1.244l-0.487,0.126l-0.176,-0.509l0,0l0,0l0,0l-0.114,0.037l-0.358,-0.036l-0.102,0.856l-0.647,0.022l0.041,0.956l-1.911,0.119l-1.63,-0.876l-0.545,-0.83l-1.561,0.225l0.782,-0.722l-0.137,-0.798l0,0l0.428,-2.022l1.298,0.005l0.886,-1.727l0.689,0.702l1.203,-0.117l-0.275,-1.45l0.738,0.114l-0.133,-1.457l1.11,-0.453l-0.056,-0.617l0.545,-0.335l-0.402,-0.476l1.263,-0.788l-0.589,-0.656l0.581,-0.363l0.184,-1.235l-0.457,-0.799l-0.729,0.937l-1.027,-1.118l-0.749,0.204l-0.241,-0.443l-0.695,0.329l-0.508,-0.35l0.636,-0.263l-0.884,-0.486l0.746,-4.77l-3.414,-0.194l-0.93,0.659l0.224,-1.279l-0.7,-0.155l-0.1,-0.541l-1.57,0.286l-0.469,-0.678l0.12,-0.454l0.865,0.081l0.084,-0.553l-0.512,-0.498l0.697,-0.931l-0.098,-1.369l-1.516,-0.982l-0.07,0.726l-1.102,-0.188l-0.406,0.889l-0.444,0.005l-0.044,-1.292l0.745,-0.281l-0.243,-1.226l-1.148,1.143l-0.515,-0.728l-1.438,-0.079l-0.25,0.563l0.447,1.029l-1.082,0.529l0.051,0.493l-1.374,0.479l-0.086,1.236l-0.276,-0.614l-0.666,0.196l0.136,-0.541l-0.442,0.036l-0.809,0.437l0.55,0.433l-0.324,0.168l-0.537,-0.347l-0.828,0.581l-0.762,-0.587l-0.154,1.246l-0.522,-0.452l-0.092,0.58l-0.695,0.084l0.161,-2.597l-1.021,-0.047l0.332,-0.769l-1.362,-0.226l-0.826,0.427l-0.274,-0.675l-1.182,0.381l-0.348,-1.188l-0.467,0.718l-0.138,-0.423l-0.547,0.457l-0.037,-1.234l-0.441,0.377l0.137,0.918l-0.809,0.163l0.803,0.614l0.091,1.414l-1.493,-0.133l-0.737,0.472l-0.706,-0.698l-0.313,0.829l-0.395,-0.21l-0.506,-1.538l1.023,-1.692l0.502,-0.087l-0.114,-0.604l-2.193,-2.082l0.919,-0.912l-1.005,-1.329l-0.907,-0.082l0.162,-0.6l0.954,-0.148l0.098,-0.502l1.637,0.355l-0.241,1.601l0.322,0.962l2.039,0.238l0.549,1.084l3.478,-0.712l0.843,0.91l-0.114,1.839l0.881,-0.024l0.03,0.382l0.744,-0.629l-0.413,-0.576l0.48,-0.7l-1.151,-0.008l0.162,-0.819l-1.197,-0.334l1.45,-1.727l-0.12,-0.324l-0.946,0.483l0.067,-0.607l0.606,-0.112l0.272,-0.766l2.317,0.307l-0.087,-2.592l-0.87,-0.009l-0.259,-0.807l-1.187,-0.325l-0.223,0.638l0.852,1.787l-0.668,0.432l-0.594,-0.82l0.081,-0.843l-1.667,-0.146l0.033,-1.182l-1.03,0.431l-1.67,-0.573l-0.842,1.079l-0.143,1.594l-0.623,0.084l-0.538,-0.648l-2.34,-0.012l-0.271,-0.688l0.528,-0.469l-1.486,-1.125l0.084,-0.941l0.627,-0.5l0.596,0.301l0.046,-0.979l0.62,-0.713l-2.16,0.211l-0.893,-1.174l-0.583,-0.1l-0.828,-1.597l0.793,-2.852l-0.371,-0.961l1.432,-0.532l0.329,-3.444l-0.765,0.28l-1.342,-0.406l0.435,-1.007l-0.216,-1.179l0.475,-0.418l1.67,1.338l2.2,0.395l0.395,-0.414l0.967,0.008l-0.123,0.512l0.792,0.117l1.574,-2.597l-0.459,-0.478l0.536,-0.135l0.01,-0.967l-0.78,-0.591l0.906,-0.816l-0.34,-0.573l-0.68,-0.09l-0.12,-0.808l-1.007,0.117l-0.715,-2.445l-1.193,-1.203l0.032,-0.333l1.145,0.137l0.056,-2.89l1.092,-0.411l0.728,0.6l0.184,-0.733l-1.711,-1.63l0.433,-1.917l-0.871,-0.187l0.915,-1.461l1.622,-0.894l2.208,-0.371l5.454,0.799l0,0l2.029,0.197l1.101,0.762l1.197,-0.218l1.739,0.46l1.853,-0.662l2.39,0.794l0.72,-0.927l0.573,1.244l0.961,0.376l0.34,-0.471l0.813,-0.001l0.321,-1.113l1.213,-0.619l0.391,-2.212l1.247,0.047l1.873,-1.122l3.212,0.532l1.212,-0.921l2.023,1.564l1.285,0.065l1.287,-1.381l0.028,-1.502l0.525,0.079l0.204,0.93l0.792,0.107l-0.105,-1.661l0.42,-0.442l2.207,-0.94l3.049,0.62l0.881,-0.487l0.138,-5.824l0.854,-1.156l3.359,-0.456l1.478,-1.042l3.158,-0.685l2.655,-1.467l0.74,0.849l1.08,-0.168l0.842,1.312l1.174,-0.092l1.879,-2.239l0.456,-1.487l-0.766,-0.845l-0.867,-0.234l0.375,-0.957l0.76,-1.263l1.842,-0.436l1.01,-1.297l0.4,0.692l1.275,0.055l0.82,1.19l0.374,1.847l0.825,0.349l0.3,0.953l0.56,-0.84l1.107,0.748l0.08,0.55l2.228,0.59l0.864,-0.541l-1.037,-0.805l0.218,-0.962l0.456,-0.106l-0.054,-1.144l-1.944,-0.472l-0.073,0.669l-2.712,-1.157l0.638,-0.944l-0.455,-0.925l0.588,-0.457l0.533,1.147l0.538,0.17l0.753,-0.724l0.291,-1.254l1.341,-0.656l2.02,1.095l-0.357,0.71l1.803,-0.206l2.234,0.847l0.552,-0.548l0.24,-2.078l0.9,0.008l-0.167,-1.204l1.798,0.47l1.157,-0.743l2.434,-0.408l0.393,-1.954l1.792,0.049l1.204,-1.539l0.986,0.729l0.917,-0.097l1.628,-1.901l0.167,-1.976l0.466,-0.662l-0.435,-0.439l1.428,-2.14l0.114,-0.835l4.307,-2.313l0.218,-0.45l-0.722,-0.893l0,0l0.895,-0.935l3.155,-1.225l1.526,-1.439l2.84,0.313l0.357,0.723l1.346,0.675l0.535,-0.146l-0.006,-1.354l0.648,-0.3l0.16,0.529l0.508,-0.058l0.075,-2.232l0.507,0.379l0.159,-0.319l-1.236,-1.226l0.559,-0.44l0.085,-1.105l0.732,-0.173l0.443,-0.709l-1.227,-0.234l1.047,-1.139l-0.485,-0.895l2.36,-2.785l0.526,0.771l0.502,-0.048l0.147,1.527l0.494,-0.073l-0.389,1.055l1.368,0.457l0.226,0.487l-0.729,0.869l0.09,0.805l0.966,0.906l0.668,-1.268l2.266,-0.976l0.549,-1.399l-0.357,-0.543l0.48,-0.432l0.958,0.649l0.831,-0.065l0.151,1.006l0.854,0.34l1.769,-0.726l0.759,0.201l0.102,-1.179l-0.436,0.222l-0.462,-0.559l1.548,-2.052l-1.19,-0.219l-0.117,-0.439l0.567,-0.407l-0.962,-0.043l0.074,-1.111l0.825,-0.332l1.716,-2.599l1.439,0.664l0.07,0.579l0.3,-1.097l0.978,0.193l0.281,-0.717l1.606,-0.23l0.055,-0.701l0.783,0.028l0.314,-0.63l-1.354,-1.485l0.703,0.079l-0.722,-0.743l-0.351,0.883l-0.496,-1.601l0.859,-0.444l1.309,0.302l0.977,1.112l-0.146,-1.188l0.546,-0.015l0.07,-0.46l-0.389,-1.067l0.29,-0.178l0.427,0.543l0.246,-0.257l0.173,0.88l-0.421,-0.044l0.039,0.346l0.752,0.125l0.315,-1.507l0.677,0.529l0.537,-0.845l-0.212,-0.708l0.607,-0.733l1.544,3.02l0.548,0.102l-0.365,0.587l0.838,1.475l0.717,0.229l-0.848,-1.555l0.994,-0.659l1.74,4.178l1.457,0.48l1.827,-0.123l1.146,1.264l0.862,-0.078l0.594,-0.604l3.787,-0.357l0.079,-1.643l0.552,0.345l0.191,-0.355l-0.421,-0.352l0.758,0.121l-0.468,-0.408l0.681,0.223l0.661,-0.606l-0.289,-0.536l0.524,-0.635l-0.534,-1.033l1.184,0.719l0.372,-0.874l1.605,-0.971l0.451,1.146l0.524,-0.921l0.875,0.056l-0.007,-0.633l-0.72,0.1l-0.586,-1.043l1.452,0.044l0.08,-0.768l0.776,0.123l-0.173,0.696l0.527,0.521l0,0l0.878,0.54l-3.728,4.292l-0.604,1.839l-1.844,1.745l-2.297,3.435l-4.825,4.502l-0.023,0.926l-8.484,4.283l-3.07,2.092l-0.901,1.507l-2.5,2.309v0.729l-1.373,1.862l-2.744,2.931l-12.682,6.427l-5.007,3.866l-1.482,1.868l-0.541,2l-0.477,0.229l0.151,0.954l1.163,1.009l0.89,-0.247l-0.238,2.469L295.496,580.058z"/>
		<path id="IN-KA" title="Karnataka" class="land" d="M124.396,603.108l-0.617,-0.444l0.776,-0.163l-0.063,-0.854l1.544,-0.767l0.48,-0.697l0.476,0.961l0.881,0.041l1.521,-0.743l0.512,-1.523l-0.938,-0.171l0.62,-0.855l0.404,0.861l0.379,-0.018l-0.412,-1.051l1.641,-3.016l-0.711,-0.351l-0.968,0.468l-0.458,-0.386l1.391,-1.249l1.141,0.505l-0.068,-1.293l0.567,-0.893l-0.205,-0.928l-1.688,-0.572l-0.027,-0.501l-1.422,-0.244l-0.407,0.516l0.312,-0.508l-0.538,-0.729l0.051,-1.174l0.369,-0.247l0.389,0.562l0.156,-0.641l-0.554,-0.134l-0.079,-1.121l-0.891,-0.148l0.075,-0.946l-0.652,0.577l-0.327,-0.409l0.683,-0.185l-0.196,-0.894l0.79,0.922l0.32,-1.115l0.758,-0.078l-0.063,0.397l0.572,0.235l0.284,-1.102l1.444,-0.567l0.104,-1.215l0.432,0.741l1.118,-0.143l0.474,1.763l1.304,-0.516l0.135,-0.673l0.996,0.05l-0.625,-0.719l0.746,-0.813l0.043,-0.874l3.282,-1.208l1.441,0.019l-0.248,-1.869l1.091,-0.477l0.066,-0.598l-0.842,-0.44l0.238,-0.335l1.924,-0.012l0.034,0.346l1.225,-0.5l1.062,1.634h1.016l-0.135,0.685l0.684,0.037l1.401,-0.737l0.119,-1.752l1.19,0.049l1.035,-0.519l0.759,0.281l0.772,-0.476l0.515,0.923l1.629,-0.451l0.114,-0.96l0.706,0.102l0.024,0.729l0.719,0.404l0.619,-0.201l-0.049,-1.642l-0.596,-0.015l0.725,-0.575l0.002,-0.682l-1.057,-1.654l0.714,-0.831l-0.047,-1.157l-1.129,-0.912l0.15,-0.851l-0.592,-0.163l-0.131,-0.722l0.78,-0.195l0.414,-1.868l0.878,0.427l0.285,0.989l0.96,-0.202l1.367,1.128l0.469,-1.149l0.779,0.808l0.529,-0.687l0.134,1.388l0.785,0.644l2.583,-0.658l0.506,0.528l0.889,-0.791l0.877,0.555l0.264,0.953l-0.072,-1.124l1.508,-0.564l0.659,0.962l1.418,-0.423l0.181,0.857l0.616,-0.026l0.552,-1.254l-0.964,-0.125l0.234,-1.294l-0.827,0.046l-0.06,-0.796l0.926,-0.539l-0.661,-0.019l0.474,-0.607l-0.546,-0.444l-0.175,-1.141l1.758,-0.204l0.273,-0.878l1.268,-0.355l-0.062,-1.154l0.781,-0.037l0.001,-0.954l1.038,-0.024l-0.001,1.264l0.863,-1.444l1.02,1.757l0.573,0.173l0.159,-1.007l0.617,-0.239l-0.249,-0.98l0.985,-0.113l0.532,-0.861l-1.061,-0.668l0.067,-0.896l1.3,0.649l2.379,-1.023l0.026,-2.584l0.773,-0.141l-0.16,-0.746l0.445,-0.512l-0.957,-0.416l0.661,-1.505l0.707,-0.079l0.755,0.565l0.186,-0.462l0.52,0.688l1.072,-0.008l-0.279,-0.928l1.14,-0.471l0.43,-1.409l0.746,0.064l-0.226,-0.762l1.039,-1.269l-0.101,-0.835l1.616,-0.99l0.517,0.516l0.577,-0.381l0.002,1.03l0.845,0.267l-1.074,1.707l1.624,0.091l0.607,1.021l0.938,-0.405l-0.015,-0.62l0.847,0.337l0,0l1.11,0.293l-0.81,1.697l0.701,1.065l0.059,1.148l-1.148,0.999l0.974,0.954l1.129,0.371l0.151,0.522l-0.197,0.502l-0.424,-0.249l-0.15,1.2l-0.657,-0.117l0.241,0.826l-0.501,-0.052l-0.482,1.197l-0.497,-0.191l-0.316,0.555l-0.134,0.412l1.287,0.402l-0.083,0.372l-2.338,1.219l-0.218,2.398l1.049,0.331l0.243,0.554l0.54,-0.705l0.439,0.519l0.867,-0.291l0.04,0.657l1.965,0.59l-0.034,0.715l-0.752,-0.182l0.098,-0.481l-0.258,0.595l-0.617,0.133l-0.007,0.561l-0.783,-0.218l-0.013,0.538l-1.307,0.05l0.531,0.505l-0.157,0.697l-0.605,0.393l-0.995,-0.357l-0.368,1.792l0.429,0.27l-1.552,1.224l0.386,0.239l-0.812,1.026l2.148,1.253l0.77,2.105l-0.963,2.138l0.372,2.824l-0.704,-0.088l-0.296,1.491l0.909,0.056l-0.037,0.731l-1.015,0.336l0.343,0.547l0.763,-0.201l-0.109,1.361l-1.522,0.412l0.5,1.028l-0.758,0.154l-0.268,0.577l-1.458,-0.159l-0.097,0.387l-1.189,0.121l1.036,1.411l1.22,0.505l1.44,0.369l1.732,-0.284l2.033,0.83l-0.027,1.099l-0.53,-0.235l-0.653,0.76l-0.682,-0.112l-0.286,0.391l0.025,0.552l0.46,0.021l-0.568,1.403l0.064,0.927l0.476,0.265l-0.391,1.579l0.405,0.614l-0.014,1.761l0,0l-5.454,-0.799l-2.208,0.371l-1.622,0.894l-0.915,1.461l0.871,0.187l-0.433,1.917l1.711,1.63l-0.184,0.733l-0.728,-0.6l-1.092,0.411l-0.056,2.89l-1.145,-0.137l-0.032,0.333l1.193,1.203l0.715,2.445l1.007,-0.117l0.12,0.808l0.68,0.09l0.34,0.573l-0.906,0.816l0.78,0.591l-0.01,0.967l-0.536,0.135l0.459,0.478l-1.574,2.597l-0.792,-0.117l0.123,-0.512l-0.967,-0.008l-0.395,0.414l-2.2,-0.395l-1.67,-1.338l-0.475,0.418l0.216,1.179l-0.435,1.007l1.342,0.406l0.765,-0.28l-0.329,3.444l-1.432,0.532l0.371,0.961l-0.793,2.852l0.828,1.597l0.583,0.1l0.893,1.174l2.16,-0.211l-0.62,0.713l-0.046,0.979l-0.596,-0.301l-0.627,0.5l-0.084,0.941l1.486,1.125l-0.528,0.469l0.271,0.688l2.34,0.012l0.538,0.648l0.623,-0.084l0.143,-1.594l0.842,-1.079l1.67,0.573l1.03,-0.431l-0.033,1.182l1.667,0.146l-0.081,0.843l0.594,0.82l0.668,-0.432l-0.852,-1.787l0.223,-0.638l1.187,0.325l0.259,0.807l0.87,0.009l0.087,2.592l-2.317,-0.307l-0.272,0.766l-0.606,0.112l-0.067,0.607l0.946,-0.483l0.12,0.324l-1.45,1.727l1.197,0.334l-0.162,0.819l1.151,0.008l-0.48,0.7l0.413,0.576l-0.744,0.629l-0.03,-0.382l-0.881,0.024l0.114,-1.839l-0.843,-0.91l-3.478,0.712l-0.549,-1.084l-2.039,-0.238l-0.322,-0.962l0.241,-1.601l-1.637,-0.355l-0.098,0.502l-0.954,0.148l-0.162,0.6l0.907,0.082l1.005,1.329l-0.919,0.912l2.193,2.082l0.114,0.604l-0.502,0.087l-1.023,1.692l0.506,1.538l0.395,0.21l0.313,-0.829l0.706,0.698l0.737,-0.472l1.493,0.133l-0.091,-1.414l-0.803,-0.614l0.809,-0.163l-0.137,-0.918l0.441,-0.377l0.037,1.234l0.547,-0.457l0.138,0.423l0.467,-0.718l0.348,1.188l1.182,-0.381l0.274,0.675l0.826,-0.427l1.362,0.226l-0.332,0.769l1.021,0.047l-0.161,2.597l0.695,-0.084l0.092,-0.58l0.522,0.452l0.154,-1.246l0.762,0.587l0.828,-0.581l0.537,0.347l0.324,-0.168l-0.55,-0.433l0.809,-0.437l0.442,-0.036l-0.136,0.541l0.666,-0.196l0.276,0.614l0.086,-1.236l1.374,-0.479l-0.051,-0.493l1.082,-0.529l-0.447,-1.029l0.25,-0.563l1.438,0.079l0.515,0.728l1.148,-1.143l0.243,1.226l-0.745,0.281l0.044,1.292l0.444,-0.005l0.406,-0.889l1.102,0.188l0.07,-0.726l1.516,0.982l0.098,1.369l-0.697,0.931l0.512,0.498l-0.084,0.553l-0.865,-0.081l-0.12,0.454l0.469,0.678l1.57,-0.286l0.1,0.541l0.7,0.155l-0.224,1.279l0.93,-0.659l3.414,0.194l-0.746,4.77l0.884,0.486l-0.636,0.263l0.508,0.35l0.695,-0.329l0.241,0.443l0.749,-0.204l1.027,1.118l0.729,-0.937l0.457,0.799l-0.184,1.235l-0.581,0.363l0.589,0.656l-1.263,0.788l0.402,0.476l-0.545,0.335l0.056,0.617l-1.11,0.453l0.133,1.457l-0.738,-0.114l0.275,1.45l-1.203,0.117l-0.689,-0.702l-0.886,1.727l-1.298,-0.005l-0.428,2.022l0,0l-2.093,-0.372l-1.548,-1.543l-0.666,-0.075l-0.281,1.076l-0.42,-0.004l-0.75,-1.146l-0.435,0.76l-0.326,-0.177l0.528,-0.727l-0.35,-0.477l-2.781,0.951l0.306,1.002l-1.425,2.62l-0.578,-0.208l-0.533,0.526l-0.504,-0.536l-1.339,0.354l0.157,0.779l-0.582,1.344l0.177,1.085l0.583,0.154l-0.649,0.669l1.043,-0.189l-0.107,1.466l-0.34,1.164l-1.279,1.492l-1.518,0.465l-0.095,1.269l5.457,0.744l0.881,1.313l-1.654,2.034l-0.607,1.526l-3.686,0.122l-0.157,1.199l-0.505,-0.267l0.073,1.051l-0.775,1.879l-1.251,-0.597l-0.699,0.421l-0.864,-0.837l-0.902,-0.087l-0.308,0.397l-2.601,0.438l0.136,1.068l-0.789,-0.26l-0.316,-1.106l-0.716,0.264l0.195,-0.408l-0.57,-0.405l-0.663,0.041l-0.276,0.763l-1.254,-0.385l-1.49,2.956l0.469,0.898l-0.285,0.58l-0.435,-0.482l-1.471,-0.283l-3.897,0.009l-0.412,-1.282l-0.758,-0.585l-1.106,0.911l-0.584,-0.089l0,0l-0.566,-0.887l0.471,-0.34l-0.235,-0.771l-1.521,0.482l-1.318,-1.549l-1.12,0.074l-0.722,-1.354l-1.59,0.268l-0.003,-2.539l-2.375,1.006l-2.464,-0.37l-1.096,-0.926l-0.517,-1.848l-1.73,0.193l-0.323,-0.813l-0.82,0.194l-0.572,-1.09l-1.219,-0.178l-1.97,-2.882l-1.331,-0.005l0.047,-1.711l-1.168,-0.857l0.021,-0.95l1.17,-0.179l-0.168,-0.781l-1.542,0.866l-0.125,-0.729l-1.125,-0.595l-0.09,-0.979l1.068,-0.448l-1.071,-0.564l-1.126,1.044l-0.449,-1.331l-0.885,0.172l-0.339,-0.347l0.161,-0.917l-1.351,-0.457l-0.063,0.669l-0.739,0.135l0.039,-1.165l-0.891,0.117l0.106,-0.291l-0.574,-0.149l0.499,-0.652l-0.342,-0.64l-2.621,0.768l0,0l-0.965,-2.088l-2.634,-10.578l-0.512,-6.119l-1.337,-4.985l-0.768,-1.715l-0.809,-0.393l-0.627,-1.238l-0.64,-3.449l-0.611,-0.864l-1.843,-5.995l0.826,-0.609l-0.599,-0.483l-0.181,0.681l-0.971,0.03l-0.313,-1.737l-0.524,-0.544l0.32,-0.286l-0.384,-1.607l-0.669,-0.711l-0.622,0.646l-2.291,-1.738l0.587,-0.132l0.157,-0.891l-0.396,-0.012l-0.308,-1.052l0,0l0.879,-0.534l0.754,0.248l-0.068,-0.906l0.831,0.638l1.22,-0.975l-0.176,-0.519l0.851,-1.058l-0.502,-1.207l0.235,-1.019l0.676,-0.881l-0.318,-0.844l-1.029,-0.743l1.761,-0.761l-0.278,-1.604l-0.957,-0.461l-0.003,-1.176l-0.548,-1.002l0.647,-0.788l-0.69,-0.86l0.298,-0.944l-0.278,-0.964l-0.496,-0.266l-0.384,0.378l-0.483,-0.69l-0.35,0.625L124.396,603.108z"/>
		<path id="IN-KL" title="Kerala" class="land" d="M139.909,665.253l2.621,-0.768l0.342,0.64l-0.499,0.652l0.574,0.149l-0.106,0.291l0.891,-0.117l-0.039,1.165l0.739,-0.135l0.063,-0.669l1.351,0.457l-0.161,0.917l0.339,0.347l0.885,-0.172l0.449,1.331l1.126,-1.044l1.071,0.564l-1.068,0.448l0.09,0.979l1.125,0.595l0.125,0.729l1.542,-0.866l0.168,0.781l-1.17,0.179l-0.021,0.95l1.168,0.857l-0.047,1.711l1.331,0.005l1.97,2.882l1.219,0.178l0.572,1.09l0.82,-0.194l0.323,0.813l1.73,-0.193l0.517,1.848l1.096,0.926l2.464,0.37l2.375,-1.006l0.003,2.539l1.59,-0.268l0.722,1.354l1.12,-0.074l1.318,1.549l1.521,-0.482l0.235,0.771l-0.471,0.34l0.566,0.887l0,0l0.028,0.766l-0.937,0.019l-0.626,0.843l-1.093,0.391l-0.564,-0.606l-0.946,0.604l0.3,2.224l0.794,-0.316l0.897,0.634l0.268,-0.298l1.606,0.533l0.795,1.107l1.279,0.737l0.601,-0.105l0.042,1.257l-1.963,1.313l0.133,1.066l0.73,-0.479l2.834,0.363l1.547,-0.969l0.599,0.477l-0.72,1.364l0.996,0.492l-0.034,1.564l1.159,0.108l-1.799,0.233l-1.201,2.271l3.525,1.321l0.479,1.146l1.002,0.165l0.193,0.616l-0.879,2.021l0.358,0.97l-1.416,0.065l0.518,0.874l-0.469,3.599l0.67,1.168l-0.412,1.362l0.395,0.372l0.539,-0.263l-0.042,0.486l0.904,0.894l1.367,0.341l1.418,-0.835l0.279,-0.789l2.326,-1.285l1.239,0.127l-0.16,0.729l0.755,1.101l-0.084,0.7l0.71,0.282l-0.433,1.862l-1.507,0.562l1.262,1.527l0.229,1.412l-0.509,0.223l-0.745,1.622l0.514,0.358l-0.309,0.728l0.524,0.549l-0.506,0.182l-0.033,1.229l-0.383,0.13l-0.796,2.311l0.922,0.039l1.237,0.827l1.032,-0.592l0.429,0.629l0.337,-0.672l0.202,1.45l0.957,0.627l-0.37,0.966l-0.928,0.415l-0.48,2.175l-0.569,0.01l-0.362,0.77l0,1.729l-0.632,0.625l0.317,0.762l-1.17,1.149l-0.288,1.094l-1.045,0.52l1.005,1.365l0.005,0.658l0.508,-0.035l0.801,1.224l-0.593,1.758l-0.798,0.857l-0.444,-0.054l2.299,4.209l-0.369,0.759l-1.278,0.168l0.481,1.17l-1.563,1.244l0.52,1.389l-0.79,-0.22l-0.533,0.523l0,0l-2.545,-1.831l-7.182,-9.488l-1.791,-1.392l-0.576,-2.444l-3.785,-8.375l-2.105,-11.593l0.332,-0.088l0.889,1.683l1.359,1.442l0.002,2.557l0.617,0.427l-0.692,3.265l0.546,0.397V733.7l2.483,-0.111l-1.797,-0.732l0.296,-0.955l-0.186,-0.826l-0.39,0.064l0.233,-1.043l-0.652,-0.141l-0.11,-3.406l-0.779,-1.155l-0.343,0.111l0.245,0.64l-0.349,-0.101l-1.448,-2.979l0.314,-1.045l-1.233,-1.432l0.791,3.509l-0.407,0.082l-2.611,-8.528l-3.96,-8.71l-1.099,-4.789l-2.552,-7.098l-1.111,-2.015l-1.367,-0.613l-1.57,-4.347l-2.872,-3.322l-1.041,-0.455l-1.873,-3.111l-0.738,-0.387l-0.611,0.398l-0.413,-1.908l-4.361,-8.593L139.909,665.253z"/>
		<path id="IN-TG" title="Telangana" class="land" d="M196.071,545.652L196.426,545.069L195.434,544.383L196.181,542.88L195.568,542.671L196.809,542.274L195.992,541.881L196.627,541.434L197.141,541.644L197.062,540.034L198.141,539.922L198.324,540.48L199.976,539.875L199.9,537.214L200.418,536.53L201.021,537.035L202.089,534.325L204.29,533.999L203.013,532.103L202.153,532.042L202.43,531.141L201.571,531.203L201.664,530.479L200.622,530.5L200.414,529.462L200.503,528.725L201.247,528.961L201.361,527.846L202.313,528.107L201.956,527.104L202.528,526.11L202.28,525.753L202.716,524.469L203.519,524.205L202.602,523.833L202.58,523.436L204.423,522.572L206.45,524.125L206.563,524.766L207.214,524.479L209.052,524.886L209.619,522.782L209.306,521.018L211.958,520.032L211.335,517.785L212.006,517.485L212.002,516.77L211.138,515.467L211.475,514.88L212.72,514.352L213.19,512.86L212.588,511.574L211.649,511.345L212.181,509.886L212.531,510.601L213.534,510.688L213.816,511.636L215.46,512.079L215.832,512.593L216.509,511.962L218.129,512.055L220.49,513.176L221.922,512.911L223.194,513.362L223.47,515.617L224.666,515.365L225.775,515.774L226.018,517.191L225.474,517.926L226.276,517.7L226.81,518.188L228.579,518.452L230.147,519.938L231.092,519.781L230.755,519.254L231.379,518.478L231.531,516.585L232.807,517.08L233.004,517.624L234.15,517.498L236.273,519.126L237.785,517.999L237.991,518.627L238.945,518.986L239.817,517.414L241.923,516.793L242.867,517.004L243.763,518.254L246.107,519.854L246.794,521.255L246.559,523.537L245.688,525.104L246.17,526.334L244.388,527.798L244.42,529.328L245.603,529.048L245.988,529.613L246.082,533.194L245.14,533.812L245.936,534.832L247.618,535.22L249.679,537.21L250.668,536.775L251.314,537.223L251.585,536.742L252.959,536.292L252.959,536.292L254.515,539.181L257.479,538.266L260.603,540.664L260.982,541.686L261.989,542.481L261.824,542.847L262.568,543.074L262.353,543.646L262.946,545.415L263.857,546.47L262.709,547.242L262.736,548.274L264.062,548.393L264.725,546.907L265.519,547.495L265.115,547.706L265.404,549.128L267.742,548.352L267.12,550.259L268.972,556.63L269.833,556.705L271.633,555.255L273.61,556.14L276.351,556.261L276.351,556.261L277.91,555.865L278.365,556.343L280.198,555.796L281.086,556.069L282.172,554.724L282.701,554.552L283.012,555.069L284.166,554.364L284.166,554.364L284.888,555.257L284.67,555.707L280.363,558.02L280.249,558.854L278.821,560.994L279.255,561.434L278.789,562.096L278.622,564.071L276.993,565.973L276.076,566.069L275.089,565.341L273.885,566.88L272.093,566.831L271.7,568.785L269.267,569.193L268.109,569.937L266.311,569.467L266.478,570.671L265.578,570.663L265.337,572.741L264.785,573.289L262.551,572.442L260.748,572.648L261.105,571.938L259.085,570.844L257.744,571.5L257.453,572.754L256.7,573.478L256.162,573.308L255.629,572.16L255.042,572.617L255.496,573.542L254.858,574.486L257.57,575.644L257.644,574.975L259.588,575.446L259.642,576.59L259.186,576.696L258.968,577.658L260.005,578.463L259.141,579.004L256.913,578.414L256.833,577.864L255.726,577.116L255.166,577.956L254.866,577.003L254.042,576.654L253.667,574.808L252.847,573.617L251.572,573.563L251.171,572.87L250.161,574.167L248.319,574.603L247.559,575.865L247.185,576.822L248.052,577.057L248.818,577.901L248.362,579.389L246.483,581.628L245.309,581.72L244.467,580.408L243.387,580.576L242.646,579.728L239.991,581.194L236.833,581.879L235.355,582.921L231.996,583.377L231.142,584.533L231.003,590.357L230.122,590.845L227.073,590.225L224.866,591.165L224.446,591.607L224.552,593.269L223.76,593.161L223.556,592.231L223.031,592.152L223.003,593.654L221.716,595.035L220.432,594.97L218.409,593.405L217.196,594.326L213.984,593.794L212.112,594.916L210.865,594.869L210.474,597.081L209.261,597.7L208.939,598.813L208.126,598.814L207.786,599.285L206.825,598.909L206.251,597.665L205.531,598.592L203.141,597.798L201.289,598.46L199.549,598L198.353,598.218L197.252,597.456L195.223,597.259L195.223,597.259L195.237,595.498L194.832,594.884L195.222,593.305L194.747,593.04L194.683,592.113L195.25,590.71L194.791,590.688L194.765,590.137L195.051,589.746L195.732,589.858L196.386,589.099L196.916,589.334L196.943,588.235L194.91,587.405L193.178,587.689L191.738,587.32L190.518,586.815L189.481,585.404L190.671,585.283L190.768,584.896L192.227,585.056L192.494,584.479L193.252,584.324L192.753,583.296L194.275,582.884L194.385,581.522L193.622,581.724L193.279,581.177L194.293,580.841L194.331,580.109L193.422,580.054L193.718,578.563L194.421,578.65L194.05,575.826L195.013,573.688L194.243,571.583L192.095,570.33L192.907,569.304L192.521,569.064L194.073,567.841L193.644,567.571L194.012,565.779L195.007,566.137L195.612,565.744L195.769,565.047L195.238,564.542L196.544,564.492L196.558,563.954L197.341,564.172L197.348,563.611L197.965,563.479L198.223,562.884L198.125,563.365L198.877,563.547L198.911,562.832L196.946,562.242L196.906,561.585L196.039,561.876L195.599,561.357L195.059,562.063L194.816,561.509L193.768,561.178L193.986,558.779L196.324,557.561L196.406,557.188L195.119,556.786L195.253,556.374L195.569,555.819L196.066,556.011L196.548,554.813L197.05,554.865L196.809,554.039L197.465,554.156L197.616,552.956L198.04,553.205L198.236,552.703L198.085,552.181L196.957,551.81L195.983,550.855L197.131,549.856L197.072,548.708L196.372,547.643L197.182,545.945z"/>
		<path id="IN-TN" title="Tamil Nadu" class="land" d="M232.964,737.864l0.477,0.356l-0.431,0.614l0.239,0.434l2.384,2.184l-2.954,-1.867l-1.762,-0.152l-0.215,-0.492l0.337,-0.311l0.988,-0.023L232.964,737.864zM210.111,665.293l0.137,0.798l-0.782,0.722l1.561,-0.225l0.545,0.83l1.63,0.876l1.911,-0.119l-0.041,-0.956l0.647,-0.022l0.102,-0.856l0.358,0.036l0.114,-0.037l0.176,0.509l0.487,-0.126l-0.044,-1.244l0.762,-0.573l0.916,-3.166l0.439,0.004l-0.691,-1.277l0.784,-0.833l0.893,0.289l0.182,-1.105l0.912,0.229l2.722,-0.871l0.123,1.419l0.895,0.023l-0.653,-0.352l0.438,-0.697l1.365,-0.187l1.873,1.331l1.751,0.146l0.758,-1.651l0.615,-0.412l0.001,-0.676l1.027,-0.121l0.849,0.946l0.976,-0.701l-0.142,-0.711l1.591,-0.521l-0.045,-0.45l0.5,-0.176l-0.197,-0.279l-0.529,0.378l0.297,-1.479l-1.056,-0.464l1.136,-0.439l2.238,0.268l0.271,0.939l0.66,0.465l1.848,-0.781l0.1,1.121l0.476,-0.095l-0.153,0.566l0.714,-0.309l0.451,0.575l0.848,-0.61l-1.332,-1.042l0.687,-0.653l0.538,0.443l0.429,-0.476l1.065,0.019l1.556,-0.695l0.587,-0.815l-0.441,-0.646l0.644,-0.29l-0.029,-0.714l0.702,-0.175l0.22,-0.605l0.631,0.07l-0.069,-0.371l-0.891,-0.177l0.083,-0.418l1.577,-0.171l1.73,1.257l1.638,0.043l0.956,1.876l0.756,0.422l-0.001,-1.134l0,0l0.687,3.19l-0.959,2.86l-0.924,7.602l-2.047,6.679l-5.699,8.62l-0.988,2.644l0,0l-0.832,-0.489l-1.277,1.198l-0.444,-1.28l0.772,-0.256l-0.375,-0.315l-0.604,0.36l-0.561,-0.891l-0.725,0.701l0,0l0,0l0,0l1.144,0.303l-0.437,0.754l0.583,0.167l0.395,0.79l-0.199,0.352l-0.681,-0.632l-0.499,0.83l0.937,0.582l0.963,-0.473l0.049,0.767l0.62,-0.336l0.39,0.678l0,0l-0.907,5.196l1.698,4.433l0.343,8.031l0,0l-1.112,-0.216l-0.377,0.4l-1.078,-0.418l0.285,0.925l-0.877,-0.18l0.486,1.152l1.719,0.636l0.091,1.13l0.793,0.007l0,0l0.587,10.942l-0.913,0.446l-1.942,0.006l-7.478,-0.881l-1.901,1.186l-1.378,2.46l-0.012,1.104l0.814,1.144l-2.35,2.229l-0.697,1.642l-2.675,3.084l-1.244,2.127l-0.762,2.688l0.861,1.559l2.599,2.23l2.657,0.397l-2.023,0.457l-2.902,-0.264l-1.715,0.334l-3.047,1.007l-0.192,0.392l-1.268,-0.047l-0.326,0.393l0.314,0.34l-1.657,0.556l-3.506,0.409l-4.221,3.212l-0.844,1.625l-0.238,2.327l0.622,-0.105l0.901,0.585l-1.273,0.099l-1.349,1.946l-0.175,1.479l0.884,-0.158l-0.174,1.928l-1.367,1.624l-0.325,0.829l0.366,0.204l-5.506,2.574l-1.198,1.489l-3.582,0.875l-0.518,1.242l-4.919,-0.933l-4.595,-3.721l0,0l0.533,-0.523l0.79,0.22l-0.52,-1.389l1.563,-1.244l-0.481,-1.17l1.278,-0.168l0.369,-0.759l-2.299,-4.209l0.444,0.054l0.798,-0.857l0.593,-1.758l-0.801,-1.224l-0.508,0.035l-0.005,-0.658l-1.005,-1.365l1.045,-0.52l0.288,-1.094l1.17,-1.149l-0.317,-0.762l0.632,-0.625l0,-1.729l0.362,-0.77l0.569,-0.01l0.48,-2.175l0.928,-0.415l0.37,-0.966l-0.957,-0.627l-0.202,-1.45l-0.337,0.672l-0.429,-0.629l-1.032,0.592l-1.237,-0.827l-0.922,-0.039l0.796,-2.311l0.383,-0.13l0.033,-1.229l0.506,-0.182l-0.524,-0.549l0.309,-0.728l-0.514,-0.358l0.745,-1.622l0.509,-0.223l-0.229,-1.412l-1.262,-1.527l1.507,-0.562l0.433,-1.862l-0.71,-0.282l0.084,-0.7l-0.755,-1.101l0.16,-0.729l-1.239,-0.127l-2.326,1.285l-0.279,0.789l-1.418,0.835l-1.367,-0.341l-0.904,-0.894l0.042,-0.486l-0.539,0.263l-0.395,-0.372l0.412,-1.362l-0.67,-1.168l0.469,-3.599l-0.518,-0.874l1.416,-0.065l-0.358,-0.97l0.879,-2.021l-0.193,-0.616l-1.002,-0.165l-0.479,-1.146l-3.525,-1.321l1.201,-2.271l1.799,-0.233l-1.159,-0.108l0.034,-1.564l-0.996,-0.492l0.72,-1.364l-0.599,-0.477l-1.547,0.969l-2.834,-0.363l-0.73,0.479l-0.133,-1.066l1.963,-1.313l-0.042,-1.257l-0.601,0.105l-1.279,-0.737l-0.795,-1.107l-1.606,-0.533l-0.268,0.298l-0.897,-0.634l-0.794,0.316l-0.3,-2.224l0.946,-0.604l0.564,0.606l1.093,-0.391l0.626,-0.843l0.937,-0.019l-0.028,-0.766l0,0l0.584,0.089l1.106,-0.911l0.758,0.585l0.412,1.282l3.897,-0.009l1.471,0.283l0.435,0.482l0.285,-0.58l-0.469,-0.898l1.49,-2.956l1.254,0.385l0.276,-0.763l0.663,-0.041l0.57,0.405l-0.195,0.408l0.716,-0.264l0.316,1.106l0.789,0.26l-0.136,-1.068l2.601,-0.438l0.308,-0.397l0.902,0.087l0.864,0.837l0.699,-0.421l1.251,0.597l0.775,-1.879l-0.073,-1.051l0.505,0.267l0.157,-1.199l3.686,-0.122l0.607,-1.526l1.654,-2.034l-0.881,-1.313l-5.457,-0.744l0.095,-1.269l1.518,-0.465l1.279,-1.492l0.34,-1.164l0.107,-1.466l-1.043,0.189l0.649,-0.669l-0.583,-0.154l-0.177,-1.085l0.582,-1.344l-0.157,-0.779l1.339,-0.354l0.504,0.536l0.533,-0.526l0.578,0.208l1.425,-2.62l-0.306,-1.002l2.781,-0.951l0.35,0.477l-0.528,0.727l0.326,0.177l0.435,-0.76l0.75,1.146l0.42,0.004l0.281,-1.076l0.666,0.075l1.548,1.543L210.111,665.293z"/>
		
	</g>
</svg>